<svg xmlns="http://www.w3.org/2000/svg" viewBox="0 0 1200 630" width="1200" height="630" role="img" aria-label="Gráfico financeiro">
  <defs>
    <linearGradient id="bg" x1="0" y1="0" x2="1" y2="1">
      <stop offset="0" stop-color="#0b1220"/>
      <stop offset="1" stop-color="#1e293b"/>
    </linearGradient>
    <linearGradient id="area" x1="0" y1="0" x2="0" y2="1">
      <stop offset="0" stop-color="#3b82f6" stop-opacity="0.55"/>
      <stop offset="1" stop-color="#3b82f6" stop-opacity="0"/>
    </linearGradient>
  </defs>
  <rect width="1200" height="630" fill="url(#bg)"/>
  <g stroke="#ffffff" stroke-opacity="0.06" stroke-width="1">
    <line x1="0" y1="157" x2="1200" y2="157"/>
    <line x1="0" y1="315" x2="1200" y2="315"/>
    <line x1="0" y1="472" x2="1200" y2="472"/>
    <line x1="300" y1="0" x2="300" y2="630"/>
    <line x1="600" y1="0" x2="600" y2="630"/>
    <line x1="900" y1="0" x2="900" y2="630"/>
  </g>
  <path d="M0 470 L180 430 L360 460 L540 360 L720 380 L900 250 L1080 200 L1200 150 L1200 630 L0 630 Z" fill="url(#area)"/>
  <path d="M0 470 L180 430 L360 460 L540 360 L720 380 L900 250 L1080 200 L1200 150" fill="none" stroke="#60a5fa" stroke-width="6" stroke-linecap="round" stroke-linejoin="round"/>
  <circle cx="900" cy="250" r="9" fill="#93c5fd"/>
  <circle cx="1080" cy="200" r="9" fill="#93c5fd"/>
</svg>
